ply
format ascii 1.0
comment VCGLIB generated
element vertex 48
property float x
property float y
property float z
property float nx
property float ny
property float nz
element face 92
property list uchar int vertex_indices
end_header
1.24261e-08 0.09842599 -0.1858501 -5.566856e-08 0.2308529 0.09595276 
0.08523851 0.04921325 -0.1858501 0.1999247 0.1154262 0.09595255 
0.1363823 0.07874049 -6.09135 0.2164954 0.124994 0.002499879 
2.731451e-07 0.1574805 -6.09135 3.001364e-08 0.2499875 0.002499864 
-0.08523849 0.04921325 -0.1858501 -0.1999246 0.1154264 0.09595253 
0.1875255 0.108268 -11.99687 0.2164955 0.1249938 0.002499879 
-0.1363817 0.07874049 -6.09135 -0.2164955 0.1249938 0.002499865 
5.338649e-07 0.2165355 -11.99687 -1.106306e-08 0.2499875 0.002499865 
0.2386693 0.137795 -17.90238 0.2164956 0.1249936 0.002499879 
-0.1875245 0.108268 -11.99687 -0.2164955 0.1249938 0.002499861 
7.945843e-07 0.2755905 -17.90238 6.835196e-08 0.2499875 0.002499865 
0.2898125 0.1673225 -23.8079 0.2164956 0.1249937 0.00249988 
-0.2386677 0.137795 -17.90238 -0.2164955 0.1249937 0.002499857 
1.055304e-06 0.3346455 -23.8079 -1.092724e-10 0.2499875 0.002499862 
0.3409563 0.1968495 -29.7134 0.203915 0.1177303 -0.08401344 
-0.2898104 0.1673225 -23.8079 -0.2164956 0.1249937 0.002499857 
1.316023e-06 0.3937 -29.7134 -1.095519e-08 0.2354607 -0.08401348 
-0.3409537 0.1968495 -29.7134 -0.203915 0.1177303 -0.08401345 
0.08523851 -0.04921195 -0.1858501 0.1999246 -0.1154265 0.09595248 
0.1363823 -0.07873999 -6.09135 0.2164955 -0.1249938 0.002499897 
0.1875255 -0.1082675 -11.99687 0.2164956 -0.1249936 0.00249988 
0.2386693 -0.1377955 -17.90238 0.2164955 -0.1249939 0.002499893 
0.2898125 -0.167323 -23.8079 0.2164956 -0.1249937 0.002499887 
0.3409563 -0.196851 -29.7134 0.2039149 -0.1177303 -0.08401353 
0.2315863 -0.133706 -29.84275 0.1052417 -0.06076132 -0.2184771 
0.2315863 0.133705 -29.84275 0.1052418 0.06076147 -0.218477 
-4.783135e-09 -0.09842449 -0.1858501 -3.363998e-09 -0.2308529 0.09595276 
2.456103e-07 -0.15748 -6.09135 -3.867441e-07 -0.2499875 0.002499895 
-0.08523849 -0.04921195 -0.1858501 -0.1999246 -0.1154264 0.09595253 
-0.1363817 -0.07873949 -6.09135 -0.2164956 -0.1249937 0.002499874 
4.960046e-07 -0.2165355 -11.99687 5.453202e-09 -0.2499875 0.002499883 
-0.1875245 -0.1082675 -11.99687 -0.2164956 -0.1249936 0.002499874 
7.463985e-07 -0.2755905 -17.90238 -7.438963e-08 -0.2499875 0.002499878 
-0.2386677 -0.1377955 -17.90238 -0.2164955 -0.1249938 0.002499861 
9.967929e-07 -0.334646 -23.8079 3.651747e-08 -0.2499875 0.002499889 
-0.2898104 -0.167323 -23.8079 -0.2164956 -0.1249937 0.002499877 
1.247186e-06 -0.3937015 -29.7134 -2.070689e-08 -0.2354606 -0.08401364 
-0.3409537 -0.196851 -29.7134 -0.2039149 -0.1177303 -0.08401357 
-0.2315837 0.133705 -29.84275 -0.1052417 0.06076153 -0.218477 
-0.2315837 -0.133706 -29.84275 -0.1052417 -0.06076125 -0.2184771 
-0.05555349 -0.03207324 -0.1572504 -0.09360903 -0.0540452 0.2254251 
-9.96216e-10 -0.064147 -0.1572504 -1.681104e-07 -0.10809 0.2254253 
0.05555351 -0.0320733 -0.1572504 0.09360905 -0.05404516 0.2254251 
1.085723e-08 0.06414849 -0.1572504 4.47177e-08 0.1080901 0.2254252 
-0.05555349 0.03207454 -0.1572504 -0.09360909 0.05404495 0.2254251 
0.05555351 0.03207454 -0.1572504 0.09360909 0.05404502 0.2254251 
1.263572e-06 -0.2674115 -29.84275 4.364259e-08 -0.1215225 -0.2184772 
1.314849e-06 0.2674105 -29.84275 -3.661723e-08 0.1215227 -0.2184771 
3 0 1 2 
3 2 3 0 
3 4 0 3 
3 3 2 5 
3 3 6 4 
3 5 7 3 
3 6 3 7 
3 7 5 8 
3 7 9 6 
3 8 10 7 
3 9 7 10 
3 10 8 11 
3 10 12 9 
3 11 13 10 
3 12 10 13 
3 13 11 14 
3 13 15 12 
3 14 16 13 
3 15 13 16 
3 16 17 15 
3 1 18 19 
3 19 2 1 
3 2 19 20 
3 20 5 2 
3 5 20 21 
3 21 8 5 
3 8 21 22 
3 22 11 8 
3 11 22 23 
3 23 14 11 
3 14 23 24 
3 24 25 14 
3 18 26 27 
3 27 19 18 
3 26 28 29 
3 29 27 26 
3 19 27 30 
3 27 29 31 
3 31 30 27 
3 30 20 19 
3 20 30 32 
3 30 31 33 
3 33 32 30 
3 32 21 20 
3 21 32 34 
3 32 33 35 
3 35 34 32 
3 34 22 21 
3 22 34 36 
3 34 35 37 
3 37 36 34 
3 36 23 22 
3 28 4 6 
3 6 29 28 
3 29 6 9 
3 9 31 29 
3 31 9 12 
3 12 33 31 
3 33 12 15 
3 15 35 33 
3 35 15 17 
3 17 37 35 
3 37 17 38 
3 38 39 37 
3 40 41 42 
3 40 42 43 
3 44 40 43 
3 4 28 40 
3 40 44 4 
3 41 40 28 
3 28 26 41 
3 42 41 26 
3 26 18 42 
3 42 45 43 
3 45 42 18 
3 18 1 45 
3 43 45 1 
3 1 0 43 
3 44 43 0 
3 0 4 44 
3 25 24 46 
3 25 46 38 
3 47 25 38 
3 46 39 38 
3 16 14 25 
3 25 47 16 
3 17 16 47 
3 47 38 17 
3 23 36 46 
3 46 24 23 
3 36 37 39 
3 39 46 36 
