ply
format ascii 1.0
comment VCGLIB generated
element vertex 48
property float x
property float y
property float z
property float nx
property float ny
property float nz
element face 92
property list uchar int vertex_indices
end_header
-0.1858501 0.098426 -4.30233e-09 0.09595276 0.2308529 5.147433e-08 
-0.1858501 0.04921325 -0.0852385 0.09595254 0.1154262 -0.1999247 
-6.09135 0.0787405 -0.136382 0.002499869 0.124994 -0.2164954 
-6.09135 0.1574805 -6.8837e-09 0.002499864 0.2499875 -3.012291e-08 
-0.1858501 0.04921325 0.0852385 0.09595253 0.1154264 0.1999246 
-11.99687 0.108268 -0.187525 0.002499869 0.1249938 -0.2164955 
-6.09135 0.0787405 0.136382 0.002499875 0.1249938 0.2164955 
-11.99687 0.2165355 -9.46505e-09 0.002499865 0.2499875 1.095379e-08 
-17.90238 0.137795 -0.2386685 0.002499869 0.1249936 -0.2164956 
-11.99687 0.108268 0.187525 0.002499871 0.1249938 0.2164955 
-17.90238 0.2755905 -1.204645e-08 0.002499865 0.2499875 -6.846123e-08 
-23.8079 0.1673225 -0.2898115 0.00249987 0.1249937 -0.2164956 
-17.90238 0.137795 0.2386685 0.002499867 0.1249937 0.2164955 
-23.8079 0.3346455 -1.46278e-08 0.002499862 0.2499875 0 
-29.7134 0.1968495 -0.340955 -0.08401345 0.1177303 -0.203915 
-23.8079 0.1673225 0.2898115 0.002499867 0.1249937 0.2164956 
-29.7134 0.3937 -1.72092e-08 -0.08401348 0.2354607 1.462754e-08 
-29.7134 0.1968495 0.340955 -0.08401345 0.1177303 0.203915 
-0.1858501 -0.04921195 -0.0852385 0.09595247 -0.1154265 -0.1999246 
-6.09135 -0.07874 -0.136382 0.002499888 -0.1249938 -0.2164955 
-11.99687 -0.1082675 -0.187525 0.00249987 -0.1249936 -0.2164956 
-17.90238 -0.1377955 -0.2386685 0.002499883 -0.1249939 -0.2164955 
-23.8079 -0.167323 -0.2898115 0.002499877 -0.1249937 -0.2164956 
-29.7134 -0.196851 -0.340955 -0.08401354 -0.1177303 -0.2039149 
-29.84275 -0.133706 -0.231585 -0.2184771 -0.06076132 -0.1052417 
-29.84275 0.133705 -0.231585 -0.218477 0.06076147 -0.1052418 
-0.1858501 -0.0984245 1.29069e-08 0.09595276 -0.2308529 -8.302301e-10 
-6.09135 -0.15748 2.065105e-08 0.002499895 -0.2499875 3.866348e-07 
-0.1858501 -0.04921195 0.0852385 0.09595254 -0.1154264 0.1999246 
-6.09135 -0.0787395 0.136382 0.002499883 -0.1249937 0.2164956 
-11.99687 -0.2165355 2.83952e-08 0.002499883 -0.2499875 -5.562476e-09 
-11.99687 -0.1082675 0.187525 0.002499883 -0.1249936 0.2164956 
-17.90238 -0.2755905 3.613935e-08 0.002499878 -0.2499875 7.428036e-08 
-17.90238 -0.1377955 0.2386685 0.002499871 -0.1249938 0.2164955 
-23.8079 -0.334646 4.38835e-08 0.002499889 -0.2499875 -3.662674e-08 
-23.8079 -0.167323 0.2898115 0.002499886 -0.1249937 0.2164956 
-29.7134 -0.3937015 5.16275e-08 -0.08401364 -0.2354606 2.437924e-08 
-29.7134 -0.196851 0.340955 -0.08401356 -0.1177303 0.2039149 
-29.84275 0.133705 0.231585 -0.218477 0.06076153 0.1052417 
-29.84275 -0.133706 0.231585 -0.2184771 -0.06076125 0.1052417 
-0.1572504 -0.03207325 0.0555535 0.2254251 -0.0540452 0.09360902 
-0.1572504 -0.064147 7.86985e-09 0.2254253 -0.10809 1.582568e-07 
-0.1572504 -0.0320733 -0.0555535 0.2254251 -0.05404516 -0.09360906 
-0.1572504 0.0641485 -3.9836e-09 0.2254252 0.1080901 -5.457135e-08 
-0.1572504 0.03207455 0.0555535 0.2254251 0.05404496 0.09360908 
-0.1572504 0.03207455 -0.0555535 0.2254251 0.05404502 -0.0936091 
-29.84275 -0.2674115 4.08964e-08 -0.2184772 -0.1215225 -3.409265e-08 
-29.84275 0.2674105 -1.038095e-08 -0.2184771 0.1215227 4.616717e-08 
3 0 1 2 
3 2 3 0 
3 4 0 3 
3 3 2 5 
3 3 6 4 
3 5 7 3 
3 6 3 7 
3 7 5 8 
3 7 9 6 
3 8 10 7 
3 9 7 10 
3 10 8 11 
3 10 12 9 
3 11 13 10 
3 12 10 13 
3 13 11 14 
3 13 15 12 
3 14 16 13 
3 15 13 16 
3 16 17 15 
3 1 18 19 
3 19 2 1 
3 2 19 20 
3 20 5 2 
3 5 20 21 
3 21 8 5 
3 8 21 22 
3 22 11 8 
3 11 22 23 
3 23 14 11 
3 14 23 24 
3 24 25 14 
3 18 26 27 
3 27 19 18 
3 26 28 29 
3 29 27 26 
3 19 27 30 
3 27 29 31 
3 31 30 27 
3 30 20 19 
3 20 30 32 
3 30 31 33 
3 33 32 30 
3 32 21 20 
3 21 32 34 
3 32 33 35 
3 35 34 32 
3 34 22 21 
3 22 34 36 
3 34 35 37 
3 37 36 34 
3 36 23 22 
3 28 4 6 
3 6 29 28 
3 29 6 9 
3 9 31 29 
3 31 9 12 
3 12 33 31 
3 33 12 15 
3 15 35 33 
3 35 15 17 
3 17 37 35 
3 37 17 38 
3 38 39 37 
3 40 41 42 
3 40 42 43 
3 44 40 43 
3 4 28 40 
3 40 44 4 
3 41 40 28 
3 28 26 41 
3 42 41 26 
3 26 18 42 
3 42 45 43 
3 45 42 18 
3 18 1 45 
3 43 45 1 
3 1 0 43 
3 44 43 0 
3 0 4 44 
3 25 24 46 
3 25 46 38 
3 47 25 38 
3 46 39 38 
3 16 14 25 
3 25 47 16 
3 17 16 47 
3 47 38 17 
3 23 36 46 
3 46 24 23 
3 36 37 39 
3 39 46 36 
