ply
format ascii 1.0
comment VCGLIB generated
element vertex 48
property float x
property float y
property float z
property float nx
property float ny
property float nz
element face 92
property list uchar int vertex_indices
end_header
-0.3717003 0.196852 -8.60466e-09 1.72218 4.143396 9.23872e-07 
-0.3717003 0.0984265 -0.170477 1.722183 2.071702 -3.588305 
-12.1827 0.157481 -0.272764 0.05441187 2.720605 -4.712214 
-12.1827 0.314961 -1.37674e-08 0.05441168 5.441193 -6.556511e-07 
-0.3717003 0.0984265 0.170477 1.722183 2.071705 3.588304 
-23.99373 0.216536 -0.37505 0.05441184 2.7206 -4.712214 
-12.1827 0.157481 0.272764 0.05441196 2.720599 4.712214 
-23.99373 0.433071 -1.89301e-08 0.0544117 5.441192 2.384186e-07 
-35.80476 0.27559 -0.477337 0.05441184 2.720596 -4.712216 
-23.99373 0.216536 0.37505 0.05441186 2.720598 4.712212 
-35.80476 0.551181 -2.40929e-08 0.05441167 5.441188 -1.490116e-06 
-47.6158 0.334645 -0.579623 0.05441188 2.720598 -4.712217 
-35.80476 0.27559 0.477337 0.05441181 2.720598 4.712216 
-47.6158 0.669291 -2.92556e-08 0.05441163 5.441192 0 
-59.4268 0.393699 -0.68191 -1.540531 2.158788 -3.739131 
-47.6158 0.334645 0.579623 0.05441181 2.720598 4.712218 
-59.4268 0.7874 -3.44184e-08 -1.540531 4.317575 2.682209e-07 
-59.4268 0.393699 0.68191 -1.540531 2.158787 3.739132 
-0.3717003 -0.0984239 -0.170477 1.722181 -2.071706 -3.588301 
-12.1827 -0.15748 -0.272764 0.05441226 -2.7206 -4.712214 
-23.99373 -0.216535 -0.37505 0.05441185 -2.720594 -4.712216 
-35.80476 -0.275591 -0.477337 0.05441213 -2.720601 -4.712212 
-47.6158 -0.334646 -0.579623 0.05441204 -2.720598 -4.712217 
-59.4268 -0.393702 -0.68191 -1.540532 -2.158787 -3.739129 
-59.6855 -0.267412 -0.46317 -4.583595 -1.274757 -2.207944 
-59.6855 0.26741 -0.46317 -4.583592 1.27476 -2.207945 
-0.3717003 -0.196849 2.58138e-08 1.722182 -4.143401 -1.490116e-08 
-12.1827 -0.31496 4.13021e-08 0.05441232 -5.441188 8.415431e-06 
-0.3717003 -0.0984239 0.170477 1.722182 -2.071704 3.588301 
-12.1827 -0.157479 0.272764 0.05441222 -2.720601 4.712222 
-23.99373 -0.433071 5.67904e-08 0.05441203 -5.441186 -1.210719e-07 
-23.99373 -0.216535 0.37505 0.05441218 -2.720597 4.71222 
-35.80476 -0.551181 7.22787e-08 0.054412 -5.441193 1.616776e-06 
-35.80476 -0.275591 0.477337 0.05441185 -2.720598 4.712212 
-47.6158 -0.669292 8.7767e-08 0.05441221 -5.44119 -7.972121e-07 
-47.6158 -0.334646 0.579623 0.05441222 -2.720598 4.712217 
-59.4268 -0.787403 1.03255e-07 -1.540533 -4.317571 4.470348e-07 
-59.4268 -0.393702 0.68191 -1.540532 -2.158786 3.739128 
-59.6855 0.26741 0.46317 -4.583591 1.274761 2.207944 
-59.6855 -0.267412 0.46317 -4.583596 -1.274756 2.207945 
-0.3145008 -0.0641465 0.111107 4.924334 -1.180599 2.044857 
-0.3145008 -0.128294 1.57397e-08 4.924343 -2.361192 3.457069e-06 
-0.3145008 -0.0641466 -0.111107 4.924334 -1.180598 -2.044858 
-0.3145008 0.128297 -7.9672e-09 4.924339 2.361193 -1.192093e-06 
-0.3145008 0.0641491 0.111107 4.924336 1.180594 2.044859 
-0.3145008 0.0641491 -0.111107 4.924335 1.180595 -2.044859 
-59.6855 -0.534823 8.17928e-08 -4.5836 -2.549513 -7.152557e-07 
-59.6855 0.534821 -2.07619e-08 -4.583594 2.549516 9.685755e-07 
3 0 1 2 
3 2 3 0 
3 4 0 3 
3 3 2 5 
3 3 6 4 
3 5 7 3 
3 6 3 7 
3 7 5 8 
3 7 9 6 
3 8 10 7 
3 9 7 10 
3 10 8 11 
3 10 12 9 
3 11 13 10 
3 12 10 13 
3 13 11 14 
3 13 15 12 
3 14 16 13 
3 15 13 16 
3 16 17 15 
3 1 18 19 
3 19 2 1 
3 2 19 20 
3 20 5 2 
3 5 20 21 
3 21 8 5 
3 8 21 22 
3 22 11 8 
3 11 22 23 
3 23 14 11 
3 14 23 24 
3 24 25 14 
3 18 26 27 
3 27 19 18 
3 26 28 29 
3 29 27 26 
3 19 27 30 
3 27 29 31 
3 31 30 27 
3 30 20 19 
3 20 30 32 
3 30 31 33 
3 33 32 30 
3 32 21 20 
3 21 32 34 
3 32 33 35 
3 35 34 32 
3 34 22 21 
3 22 34 36 
3 34 35 37 
3 37 36 34 
3 36 23 22 
3 28 4 6 
3 6 29 28 
3 29 6 9 
3 9 31 29 
3 31 9 12 
3 12 33 31 
3 33 12 15 
3 15 35 33 
3 35 15 17 
3 17 37 35 
3 37 17 38 
3 38 39 37 
3 40 41 42 
3 40 42 43 
3 44 40 43 
3 4 28 40 
3 40 44 4 
3 41 40 28 
3 28 26 41 
3 42 41 26 
3 26 18 42 
3 42 45 43 
3 45 42 18 
3 18 1 45 
3 43 45 1 
3 1 0 43 
3 44 43 0 
3 0 4 44 
3 25 24 46 
3 25 46 38 
3 47 25 38 
3 46 39 38 
3 16 14 25 
3 25 47 16 
3 17 16 47 
3 47 38 17 
3 23 36 46 
3 46 24 23 
3 36 37 39 
3 39 46 36 
