ply
format ascii 1.0
comment VCGLIB generated
element vertex 16
property float x
property float y
property float z
element face 34
property list uchar int vertex_indices
end_header
-20.372 0 -2386.61 
183.348 0 -2183.13 
-20.372 0 20.3476 
4387.07 0 -2386.61 
-20.372 100 -2386.61 
4387.07 100 -2386.61 
183.348 100 -2183.13 
183.348 100 -183.129 
-20.372 100 20.3476 
4387.07 100 20.3476 
4387.07 0 20.3476 
183.348 0 -183.129 
4183.35 0 -183.129 
4183.35 0 -2183.13 
4183.35 100 -183.129 
4183.35 100 -2183.13 
3 0 1 2 
3 1 0 3 
3 4 5 3 
3 4 3 0 
3 4 6 5 
3 6 4 7 
3 8 7 4 
3 7 8 9 
3 2 10 9 
3 2 9 8 
3 2 11 10 
3 11 2 1 
3 11 12 13 
3 11 13 1 
3 10 11 12 
3 12 11 7 
3 12 7 14 
3 11 1 6 
3 11 6 7 
3 1 13 15 
3 1 15 6 
3 1 3 13 
3 13 3 12 
3 10 12 3 
3 10 3 5 
3 10 5 9 
3 5 15 9 
3 5 6 15 
3 14 9 15 
3 7 9 14 
3 13 12 14 
3 13 14 15 
3 0 2 8 
3 0 8 4 
