ply
format ascii 1.0
comment VCGLIB generated
element vertex 16
property float x
property float y
property float z
property float nx
property float ny
property float nz
element face 16
property list uchar int vertex_indices
end_header
-17.9986 0.7 9 0.7071067 0 -0.7071069 
0 0 9 0 0 -1 
-17.9986 0 9 0.7071068 0 -0.7071068 
0 0.7 9 0 0 -1 
18 0 9 -0.7071071 0 -0.7071066 
18 0.7 9 -0.7071068 0 -0.7071068 
18 0.7 -0 -1 0 0 
18 0 -0 -1 0 0 
18 0.7 -9 -0.7071071 0 0.7071066 
18 0 -9 -0.7071068 0 0.7071068 
0 0 -9 0 0 1 
0 0.7 -9 0 0 1 
-17.9986 0 -9 0.7071067 0 0.7071069 
-17.9986 0.7 -9 0.7071068 0 0.7071068 
-17.9986 0.7 -0 1 0 0 
-17.9986 0 -0 1 0 0 
3 0 1 2 
3 1 0 3 
3 3 4 1 
3 4 3 5 
3 6 4 5 
3 4 6 7 
3 8 7 6 
3 7 8 9 
3 8 10 9 
3 10 8 11 
3 11 12 10 
3 12 11 13 
3 14 12 13 
3 12 14 15 
3 0 15 14 
3 15 0 2 
