ply
format ascii 1.0
comment VCGLIB generated
element vertex 55
property float x
property float y
property float z
property float nx
property float ny
property float nz
element face 114
property list uchar int vertex_indices
end_header
19.0014 0.7 10 0.5773503 0.5773503 0.5773503 
18 -1 10 0 -0.7071068 0.7071068 
19.0014 -1 10 0.5773589 -0.5773331 0.5773589 
18 0.7 10 0 0.7071066 0.7071069 
18 0.7 9 -0.3015113 0.904534 -0.3015113 
19.0014 0.7 9 0.7071068 0.7071068 0 
19.0014 -1 9 1 0 0 
19.0014 -1 -0 0.6666669 -0.6666666 -0.3333332 
19.0007 -1 -0 0 -0.8944232 -0.4472215 
0 -1 10 0.3333333 -0.6666667 0.6666666 
0 -1 -0 0.4082485 -0.8164966 -0.4082483 
0 0 9 0.8320503 0 -0.5547001 
0 0.7 10 0.3333333 0.6666667 0.6666667 
0 0.7 9 0.3333335 0.6666667 -0.6666666 
18 0 9 -0.7071071 0 -0.7071066 
-17.9986 0.7 9 0.3015111 0.9045342 -0.3015113 
-17.9986 0 9 0.7071068 0 -0.7071068 
-17.9986 0 -0 0.5546716 0 -0.8320693 
-17.9986 0.7 -0 0.6666666 0.6666669 -0.3333334 
-17.9986 0 -9 0.7071067 0 0.7071069 
-17.9986 0.7 -9 0.3015113 0.904534 0.3015113 
0 0.7 -9 0.3333333 0.6666668 0.6666666 
0 0 -9 0.8320504 0 0.5547 
18 0.7 -9 -0.3015113 0.9045342 0.3015111 
18 0 -9 -0.7071068 0 0.7071068 
18 0 -0 -0.5547001 0 -0.8320504 
18 0.7 -0 -0.6666666 0.6666668 -0.3333334 
19.0014 0.7 -0 0.6666667 0.6666667 -0.3333333 
19.0014 0 9 1 0 0 
19.0014 -1 -9 1 0 0 
19.0014 0.7 -9 0.7071068 0.7071068 0 
19.0014 -1 -10 0.5773588 -0.5773331 -0.5773588 
19.0014 0.7 -10 0.5773503 0.5773503 -0.5773503 
19.0014 0 -10 0 0 -1 
18 0.7 -10 0 0.7071207 -0.7070929 
19 -1 -10 0 -0.7071068 -0.7071068 
18 -1 -10 0 -0.7071068 -0.7071067 
0 -1 -10 0.3333333 -0.6666667 -0.6666667 
-18.9986 -1 -0 -0.6666667 -0.6666667 -0.3333334 
-18.9986 -1 -10 -0.5773503 -0.5773503 -0.5773503 
-18.9986 0.7 -9 -1 2.500608e-05 0 
-18.9986 0.7 -0 -0.6666666 0.6666667 -0.3333333 
-18.9986 0.7 9 -1 6.033334e-06 0 
-18.9986 -1 10 -0.5773503 -0.5773503 0.5773503 
-18.9986 0.7 10 -0.7071068 0 0.7071068 
-17.9986 0.7 10 0 0.7071068 0.7071068 
-17.9986 -1 10 0 -0.7071067 0.7071068 
-19 0.7 9 0 -1 0 
-19 0.7 -9 0 -1 0 
-18.9986 0.7 -10 -0.7071067 8.532422e-06 -0.7071068 
-19 0.7 -10 0 -1 0 
-17.9986 0.7 -10 0 1 0 
0 0.7 -10 0.3333334 0.6666666 -0.6666667 
0 0 -0 1 0 0 
-19 0.7 10 0 -1 0 
3 0 1 2 
3 1 0 3 
3 0 4 3 
3 4 0 5 
3 0 6 5 
3 6 0 2 
3 2 7 6 
3 7 2 8 
3 1 8 2 
3 9 8 1 
3 8 9 10 
3 11 9 10 
3 9 11 12 
3 13 12 11 
3 3 13 12 
3 13 3 4 
3 14 13 4 
3 13 14 11 
3 11 15 13 
3 15 11 16 
3 17 15 16 
3 15 17 18 
3 19 18 17 
3 18 19 20 
3 19 21 20 
3 21 19 22 
3 22 23 21 
3 23 22 24 
3 25 23 24 
3 23 25 26 
3 14 26 25 
3 26 14 4 
3 5 26 4 
3 26 5 27 
3 5 7 27 
3 28 7 5 
3 7 28 6 
3 5 6 28 
3 29 27 7 
3 27 29 30 
3 31 30 29 
3 30 31 32 
3 32 31 33 
3 31 34 33 
3 35 34 31 
3 34 35 36 
3 8 36 35 
3 10 36 8 
3 36 10 37 
3 38 37 10 
3 37 38 39 
3 38 40 39 
3 40 38 41 
3 38 42 41 
3 43 42 38 
3 42 43 44 
3 43 45 44 
3 45 43 46 
3 43 10 46 
3 10 43 38 
3 38 17 10 
3 17 38 41 
3 17 41 18 
3 41 15 18 
3 15 41 42 
3 42 40 41 
3 47 40 42 
3 40 47 48 
3 48 49 40 
3 49 48 50 
3 20 49 40 
3 49 20 51 
3 21 51 20 
3 51 21 52 
3 23 52 21 
3 52 23 34 
3 23 32 34 
3 32 23 30 
3 23 27 30 
3 27 23 26 
3 27 25 26 
3 7 25 27 
3 25 7 17 
3 8 17 7 
3 10 17 8 
3 8 31 7 
3 31 8 35 
3 7 31 29 
3 25 17 53 
3 33 34 32 
3 36 52 34 
3 52 36 37 
3 37 49 52 
3 49 37 39 
3 39 40 49 
3 52 49 51 
3 21 37 52 
3 22 37 21 
3 53 37 22 
3 53 10 37 
3 11 10 53 
3 40 18 20 
3 18 40 41 
3 42 54 47 
3 54 42 44 
3 45 42 44 
3 42 45 15 
3 12 15 45 
3 15 12 13 
3 46 12 45 
3 12 46 9 
3 46 10 9 
3 9 3 12 
3 3 9 1 
