ply
format ascii 1.0
comment VCGLIB generated
element vertex 16
property float x
property float y
property float z
element face 34
property list uchar int vertex_indices
end_header
-0.20372 0 -23.8661 
1.83348 0 -21.8313 
-0.20372 0 0.203476 
43.8707 0 -23.8661 
-0.20372 1 -23.8661 
43.8707 1 -23.8661 
1.83348 1 -21.8313 
1.83348 1 -1.83129 
-0.20372 1 0.203476 
43.8707 1 0.203476 
43.8707 0 0.203476 
1.83348 0 -1.83129 
41.8335 0 -1.83129 
41.8335 0 -21.8313 
41.8335 1 -1.83129 
41.8335 1 -21.8313 
3 0 1 2 
3 1 0 3 
3 4 5 3 
3 4 3 0 
3 4 6 5 
3 6 4 7 
3 8 7 4 
3 7 8 9 
3 2 10 9 
3 2 9 8 
3 2 11 10 
3 11 2 1 
3 11 12 13 
3 11 13 1 
3 10 11 12 
3 12 11 7 
3 12 7 14 
3 11 1 6 
3 11 6 7 
3 1 13 15 
3 1 15 6 
3 1 3 13 
3 13 3 12 
3 10 12 3 
3 10 3 5 
3 10 5 9 
3 5 15 9 
3 5 6 15 
3 14 9 15 
3 7 9 14 
3 13 12 14 
3 13 14 15 
3 0 2 8 
3 0 8 4 
